<svg xmlns="http://www.w3.org/2000/svg" width="25.2" height="28" viewBox="0 0 25.2 28">
  <g id="Group_11" data-name="Group 11" transform="translate(-1747 -26)">
    <g id="Group_10" data-name="Group 10" transform="translate(1747 26)">
      <g id="Group_9" data-name="Group 9">
        <path id="Path_8" data-name="Path 8" d="M11.992,2.5H23.165A3.5,3.5,0,0,1,26.657,6v9.1H17.578a.7.7,0,0,0,0,1.4h9.078V27a3.5,3.5,0,0,1-3.492,3.5H11.992A3.5,3.5,0,0,1,8.5,27V6A3.5,3.5,0,0,1,11.992,2.5Z" transform="translate(-8.5 -2.5)" fill="#2d2d2d"/>
        <path id="Path_9" data-name="Path 9" d="M8.138,12.725,5.115,9.7a.7.7,0,1,1,1-1l4.226,4.224a.734.734,0,0,1,.152.23.7.7,0,0,1,0,.539.718.718,0,0,1-.152.23L6.111,18.154a.7.7,0,0,1-1-1l3.024-3.024H3.5V12.725Z" transform="translate(14.657 -0.127)" fill="#2d2d2d"/>
      </g>
    </g>
  </g>
</svg>
