<?xml version="1.0" encoding="UTF-8"?>
<svg xmlns="http://www.w3.org/2000/svg" xmlns:xlink="http://www.w3.org/1999/xlink" viewBox="0 0 24 24" width="24px" height="24px">
<g id="surface56690844">
<path style=" stroke:none;fill-rule:nonzero;fill:rgb(71.372551%,71.372551%,71.372551%);fill-opacity:1;" d="M 2.75 4.5 C 2.480469 4.496094 2.226562 4.636719 2.089844 4.871094 C 1.957031 5.105469 1.957031 5.394531 2.089844 5.628906 C 2.226562 5.863281 2.480469 6.003906 2.75 6 L 21.25 6 C 21.519531 6.003906 21.773438 5.863281 21.910156 5.628906 C 22.042969 5.394531 22.042969 5.105469 21.910156 4.871094 C 21.773438 4.636719 21.519531 4.496094 21.25 4.5 Z M 2.75 11.25 C 2.480469 11.246094 2.226562 11.386719 2.089844 11.621094 C 1.957031 11.855469 1.957031 12.144531 2.089844 12.378906 C 2.226562 12.613281 2.480469 12.753906 2.75 12.75 L 21.25 12.75 C 21.519531 12.753906 21.773438 12.613281 21.910156 12.378906 C 22.042969 12.144531 22.042969 11.855469 21.910156 11.621094 C 21.773438 11.386719 21.519531 11.246094 21.25 11.25 Z M 2.75 18 C 2.480469 17.996094 2.226562 18.136719 2.089844 18.371094 C 1.957031 18.605469 1.957031 18.894531 2.089844 19.128906 C 2.226562 19.363281 2.480469 19.503906 2.75 19.5 L 21.25 19.5 C 21.519531 19.503906 21.773438 19.363281 21.910156 19.128906 C 22.042969 18.894531 22.042969 18.605469 21.910156 18.371094 C 21.773438 18.136719 21.519531 17.996094 21.25 18 Z M 2.75 18 "/>
</g>
</svg>
